<svg width="204" height="40" viewBox="0 0 204 40" fill="none" xmlns="http://www.w3.org/2000/svg">
<path d="M21.0667 9.25666C21.0667 9.25666 21.0035 9.47122 19.9913 12.1992C17.1128 9.90034 12.2414 10.0536 12.2414 13.6091C12.2414 17.7777 22.3637 17.2567 22.0473 24.6743C21.7943 30.6206 14.4557 32 8.8252 29.1187C9.33131 28.0766 9.83742 27.0651 10.1854 26.2375C14.4557 28.7509 18.125 27.6168 18.7576 25.5632C20.4025 19.9846 8.85683 21.7011 8.85683 13.8237C8.85683 10.4827 12.7159 5.33329 21.0667 9.25666ZM32.7706 8.27581H46.91C46.91 8.27581 46.8784 9.47122 46.91 11.157H36.3133V17.0728H43.8101C43.7785 18.2682 43.8101 19.1877 43.8101 19.8007H36.3133V27.1877H46.91V30.0076H32.8022L32.7706 8.27581ZM65.1617 8.30647C63.928 8.27581 61.3026 8.27581 59.0883 8.27581V30.0383H62.6311V21.7931C63.5168 21.7931 65.3198 21.7318 66.8065 21.7011C68.831 21.6398 74.2084 20.6896 74.1451 14.7126C74.1135 7.99995 66.4269 8.33712 65.1617 8.30647ZM64.9719 18.9425H62.6311V11.0957H64.6239C65.5412 11.0957 70.9503 10.6973 71.1085 14.7432C71.2982 18.7279 67.0596 18.9425 64.9719 18.9425ZM159.362 30.0383H163.632L156.546 20.2911C158.444 19.6168 160.658 18.0229 160.374 14.4367C159.868 7.9693 153.383 8.45972 151.991 8.39842C150.821 8.33712 148.29 8.30647 146.108 8.33712V30.0383H149.651V20.8735C150.821 20.8735 151.232 20.8429 153.004 20.8122L159.362 30.0383ZM151.833 18.3601C151.042 18.3601 150.441 18.3601 149.651 18.3295V11.0038H151.485C152.339 11.0038 156.989 10.7586 157.369 14.2835C157.843 18.4827 152.782 18.3601 151.833 18.3601ZM99.0078 16.9501V8.39842H102.456V30.0996H99.0078V19.8007H87.5254V30.0996H84.0775V8.39842H87.5254V16.9501H99.0078Z" fill="black"/>
<path fill-rule="evenodd" clip-rule="evenodd" d="M179.511 8.33764H183.591L191.657 30.1307H188.051C188.051 30.1307 187.261 27.9238 186.185 25.012L177.107 25.0733C177.107 25.0733 176.727 26.2074 175.652 30.1307H172.172L179.511 8.33764ZM177.929 22.5599L185.236 22.5292L181.535 11.8012H181.472L177.929 22.5599ZM124.25 10.851C118.999 10.851 116.026 14.5905 116.026 19.2189C116.026 23.8472 118.967 27.5867 124.25 27.5867C129.532 27.5867 132.474 23.8472 132.474 19.2189C132.474 14.5905 129.469 10.851 124.25 10.851ZM124.25 7.72461C117.101 7.72461 112.451 12.874 112.451 19.1882C112.451 25.533 117.101 30.6518 124.25 30.6518C131.399 30.6518 136.049 25.5024 136.049 19.1882C136.049 12.8434 131.399 7.72461 124.25 7.72461Z" fill="black"/>
</svg>
